<?xml version="1.0" encoding="UTF-8" standalone="no"?>
<!DOCTYPE svg PUBLIC "-//W3C//DTD SVG 1.1//EN" "http://www.w3.org/Graphics/SVG/1.1/DTD/svg11.dtd">
<svg width="100%" height="100%" viewBox="0 0 608 608" version="1.1" xmlns="http://www.w3.org/2000/svg" xmlns:xlink="http://www.w3.org/1999/xlink" xml:space="preserve" xmlns:serif="http://www.serif.com/" style="fill-rule:evenodd;clip-rule:evenodd;stroke-linejoin:round;stroke-miterlimit:2;">
    <g transform="matrix(1.04295,0,0,1.04295,304,304)">
        <path d="M0,288C126.2,288 196.356,288 242.178,242.178C288,196.356 288,126.2 288,0C288,-126.2 288,-196.356 242.178,-242.178C196.356,-288 126.2,-288 0,-288C-126.2,-288 -196.356,-288 -242.178,-242.178C-288,-196.356 -288,-126.2 -288,0C-288,126.2 -288,196.356 -242.178,242.178C-196.356,288 -126.2,288 0,288Z" style="fill:url(#_Linear1);fill-rule:nonzero;"/>
    </g>
    <g transform="matrix(29.3431,0,0,29.3431,-7226.08,-6371.04)">
        <path d="M250.459,230.935C250.011,230.935 249.655,230.855 249.391,230.695C249.127,230.535 248.935,230.247 248.815,229.831L246.979,224.107C246.963,224.051 247.031,223.937 247.183,223.765C247.335,223.593 247.551,223.437 247.831,223.297C248.111,223.157 248.443,223.087 248.827,223.087C249.171,223.087 249.495,223.203 249.799,223.435C250.103,223.667 250.307,224.063 250.411,224.623L250.783,226.903L251.311,224.707C251.383,224.371 251.561,224.117 251.845,223.945C252.129,223.773 252.463,223.687 252.847,223.687C253.207,223.687 253.531,223.779 253.819,223.963C254.107,224.147 254.283,224.395 254.347,224.707L254.875,226.903L255.235,224.575C255.323,224.055 255.517,223.675 255.817,223.435C256.117,223.195 256.451,223.075 256.819,223.075C257.179,223.075 257.491,223.145 257.755,223.285C258.019,223.425 258.223,223.581 258.367,223.753C258.511,223.925 258.571,224.043 258.547,224.107L256.795,229.831C256.683,230.231 256.489,230.515 256.213,230.683C255.937,230.851 255.575,230.935 255.127,230.935C254.679,230.935 254.315,230.853 254.035,230.689C253.755,230.525 253.555,230.239 253.435,229.831L252.787,227.443L252.187,229.831C252.083,230.231 251.883,230.515 251.587,230.683C251.291,230.851 250.915,230.935 250.459,230.935Z" style="fill:white;fill-rule:nonzero;"/>
        <path d="M259.999,230.935C259.599,230.935 259.293,230.783 259.081,230.479C258.869,230.175 258.763,229.751 258.763,229.207L258.763,224.743C258.763,224.207 258.889,223.801 259.141,223.525C259.393,223.249 259.763,223.111 260.251,223.111L262.735,223.111C263.863,223.111 264.709,223.337 265.273,223.789C265.837,224.241 266.119,224.899 266.119,225.763C266.119,226.259 266.011,226.693 265.795,227.065C265.579,227.437 265.259,227.723 264.835,227.923L264.679,227.995L266.251,229.963C266.291,230.011 266.249,230.117 266.125,230.281C266.001,230.445 265.807,230.595 265.543,230.731C265.279,230.867 264.959,230.935 264.583,230.935C264.135,230.935 263.775,230.841 263.503,230.653C263.231,230.465 262.927,230.139 262.591,229.675L261.823,228.619L261.703,228.619L261.703,229.579C261.703,230.019 261.595,230.355 261.379,230.587C261.163,230.819 260.843,230.935 260.419,230.935L259.999,230.935ZM262.375,226.699C262.919,226.699 263.191,226.467 263.191,226.003C263.191,225.763 263.125,225.585 262.993,225.469C262.861,225.353 262.651,225.295 262.363,225.295L261.655,225.295L261.655,226.699L262.375,226.699Z" style="fill:white;fill-rule:nonzero;"/>
    </g>
    <defs>
        <linearGradient id="_Linear1" x1="0" y1="0" x2="1" y2="0" gradientUnits="userSpaceOnUse" gradientTransform="matrix(329.146,-568.302,568.302,329.146,-166.587,276.82)"><stop offset="0" style="stop-color:rgb(0,167,199);stop-opacity:1"/><stop offset="1" style="stop-color:rgb(26,217,255);stop-opacity:1"/></linearGradient>
    </defs>
</svg>
